<?xml version="1.0"?>

<svg version="1.1" xmlns="http://www.w3.org/2000/svg" xmlns:xlink="http://www.w3.org/1999/xlink" x="0px" y="0px" viewBox="0 0 16 16" style="enable-background:new 0 0 16 16;" xml:space="preserve">

<g id="Outter_Container" class="st0">
</g>
<g id="NEW" class="st0">
</g>
<g id="NEW_NO_Container">
&#x9;<g id="icon-warning-caution_2_">
&#x9;&#x9;<g>
&#x9;&#x9;&#x9;<path class="st2" d="M6.9998,5.0002v3c0,0.5527,0.4473,1,1,1s1-0.4473,1-1v-3c0-0.5527-0.4473-1-1-1S6.9998,4.4475,6.9998,5.0002&#xA;&#x9;&#x9;&#x9;&#x9;z"></path>
&#x9;&#x9;&#x9;<path class="st2" d="M14.9998,2.0002c-3.6279,0-6.4189-1.8154-6.4453-1.832c-0.3359-0.2246-0.7734-0.2246-1.1094,0&#xA;&#x9;&#x9;&#x9;&#x9;c-0.0273,0.0186-2.79,1.832-6.4453,1.832c-0.5527,0-1,0.4473-1,1c0,10.7402,6.6836,13,8,13s8-2.2598,8-13&#xA;&#x9;&#x9;&#x9;&#x9;C15.9998,2.4475,15.5525,2.0002,14.9998,2.0002z M7.9998,14.0002C7.0359,13.9534,2.366,12.0159,2.0203,3.9612&#xA;&#x9;&#x9;&#x9;&#x9;c2.792-0.2148,4.9951-1.2549,5.9795-1.7988c0.9844,0.5439,3.1875,1.584,5.9795,1.7988&#xA;&#x9;&#x9;&#x9;&#x9;C13.6336,12.0159,8.9637,13.9534,7.9998,14.0002z"></path>
&#x9;&#x9;&#x9;<circle class="st2" cx="8.0002" cy="10.9999" r="1"></circle>
&#x9;&#x9;</g>
&#x9;</g>
</g>
</svg>