<?xml version="1.0"?>

<svg version="1.1" xmlns="http://www.w3.org/2000/svg" xmlns:xlink="http://www.w3.org/1999/xlink" x="0px" y="0px" viewBox="0 0 16 16" style="enable-background:new 0 0 16 16;" xml:space="preserve">

<g id="Outter_Container" class="st0">
</g>
<g id="NEW" class="st0">
</g>
<g id="NEW_NO_Container">
&#x9;<g id="icon-calendar_2_">
&#x9;&#x9;<path class="st2" d="M15,2.0002h-2v-1c0-0.5527-0.4473-1-1-1s-1,0.4473-1,1v1H5v-1c0-0.5527-0.4473-1-1-1s-1,0.4473-1,1v1H1&#xA;&#x9;&#x9;&#x9;c-0.5527,0-1,0.4473-1,1v12c0,0.5527,0.4473,1,1,1h10.0264c0.1303,0,0.2602-0.0265,0.3825-0.0771&#xA;&#x9;&#x9;&#x9;c0.123-0.0509,0.2336-0.1246,0.326-0.2175c0.0001-0.0001,0.0003-0.0002,0.0004-0.0003l3.9705-3.9968&#xA;&#x9;&#x9;&#x9;c0.0009-0.0009,0.0016-0.0016,0.0024-0.0024l0.0007-0.0007c0.0046-0.0046,0.0059-0.011,0.0104-0.0157&#xA;&#x9;&#x9;&#x9;c0.0856-0.0894,0.1561-0.1931,0.204-0.3095c0.0414-0.1008,0.0563-0.2075,0.0634-0.3144C15.9883,11.0429,16,11.0235,16,11.0002v-8&#xA;&#x9;&#x9;&#x9;C16,2.4475,15.5527,2.0002,15,2.0002z M11.0264,13.5815v-2.5812h2.5642L11.0264,13.5815z M14,4.0002v5h-3.9736&#xA;&#x9;&#x9;&#x9;c-0.5527,0-1,0.4473-1,1v4H2v-10H14z"></path>
&#x9;</g>
</g>
</svg>