<?xml version="1.0"?>

<svg version="1.1" xmlns="http://www.w3.org/2000/svg" xmlns:xlink="http://www.w3.org/1999/xlink" x="0px" y="0px" viewBox="0 0 16 16" style="enable-background:new 0 0 16 16;" xml:space="preserve">

<g id="Outter_Container" class="st0">
</g>
<g id="NEW" class="st0">
</g>
<g id="NEW_NO_Container">
&#x9;<g id="icon-home_2_">
&#x9;&#x9;<path class="st2" d="M15.6511,6.241l-7-6c-0.375-0.3213-0.9268-0.3213-1.3018,0l-7,6C-0.0701,6.6003-0.1184,7.2317,0.241,7.6511&#xA;&#x9;&#x9;&#x9;c0.1974,0.2302,0.4771,0.3367,0.7593,0.3366v7.0125c0,0.5522,0.4478,1,1,1h12c0.5522,0,1-0.4478,1-1V8.0001&#xA;&#x9;&#x9;&#x9;C15.2818,8,15.5619,7.8815,15.7595,7.6511C16.1189,7.2317,16.0706,6.6003,15.6511,6.241z M8.0002,10.0002c-0.5522,0-1,0.4478-1,1&#xA;&#x9;&#x9;&#x9;v3h-4V6.6031l5-4.2859l5,4.2859v7.3972h-4v-3C9.0002,10.448,8.5525,10.0002,8.0002,10.0002z"></path>
&#x9;</g>
</g>
</svg>