<?xml version="1.0"?>

<svg version="1.1" xmlns="http://www.w3.org/2000/svg" xmlns:xlink="http://www.w3.org/1999/xlink" x="0px" y="0px" viewBox="0 0 16 16" style="enable-background:new 0 0 16 16;" xml:space="preserve">

<g id="Outter_Container" class="st0">
</g>
<g id="NEW" class="st0">
</g>
<g id="NEW_NO_Container">
&#x9;<g id="icon-tent_2_">
&#x9;&#x9;<g>
&#x9;&#x9;&#x9;<path class="st2" d="M15.8637,14.4962L8.8773,2.5206C8.8681,2.504,8.8588,2.4874,8.8485,2.4708L7.6967,0.4962&#xA;&#x9;&#x9;&#x9;&#x9;C7.4184,0.0196,6.808-0.1405,6.329,0.1359C5.852,0.4142,5.6908,1.0265,5.9691,1.504l0.873,1.4961L0.1361,14.4962&#xA;&#x9;&#x9;&#x9;&#x9;c-0.1807,0.3096-0.1816,0.6914-0.0034,1.002s0.5093,0.502,0.8672,0.502h14c0.3579,0,0.689-0.1914,0.8672-0.502&#xA;&#x9;&#x9;&#x9;&#x9;S16.0443,14.8058,15.8637,14.4962z M8.9999,14.0001v-3c0-0.5527-0.4478-1-1-1s-1,0.4473-1,1v3H2.7411l5.2588-9.0156&#xA;&#x9;&#x9;&#x9;&#x9;l5.2588,9.0156H8.9999z"></path>
&#x9;&#x9;</g>
&#x9;</g>
</g>
</svg>