<?xml version="1.0"?>

<svg version="1.1" xmlns="http://www.w3.org/2000/svg" xmlns:xlink="http://www.w3.org/1999/xlink" x="0px" y="0px" viewBox="0 0 16 16" style="enable-background:new 0 0 16 16;" xml:space="preserve">

<g id="Outter_Container" class="st0">
</g>
<g id="NEW" class="st0">
</g>
<g id="NEW_NO_Container">
&#x9;<g id="icon-contrast_1_">
&#x9;&#x9;<g>
&#x9;&#x9;&#x9;<g>
&#x9;&#x9;&#x9;&#x9;<path class="st2" d="M15.3713,4.906c-0.2025-0.4786-0.4501-0.9333-0.7376-1.3589c-0.7188-1.064-1.6869-1.9458-2.8204-2.5615&#xA;&#x9;&#x9;&#x9;&#x9;&#x9;c-0.4534-0.2463-0.9333-0.4501-1.4343-0.6059c-0.2505-0.0779-0.5063-0.1439-0.7667-0.1971C9.0915,0.0759,8.5523,0.02,8,0.02&#xA;&#x9;&#x9;&#x9;&#x9;&#x9;c-4.4183,0-8,3.5817-8,8s3.5817,8,8,8c0.5523,0,1.0916-0.056,1.6123-0.1625c0.2604-0.0533,0.5162-0.1192,0.7667-0.1971&#xA;&#x9;&#x9;&#x9;&#x9;&#x9;c0.501-0.1558,0.9809-0.3596,1.4343-0.6059c1.1335-0.6158,2.1016-1.4975,2.8204-2.5615&#xA;&#x9;&#x9;&#x9;&#x9;&#x9;c0.2875-0.4256,0.5352-0.8804,0.7376-1.3589C15.7761,10.1768,16,9.1245,16,8.02S15.7761,5.8631,15.3713,4.906z M2,8.02&#xA;&#x9;&#x9;&#x9;&#x9;&#x9;c0-3.3084,2.6916-6,6-6v12C4.6915,14.02,2,11.3284,2,8.02z"></path>
&#x9;&#x9;&#x9;</g>
&#x9;&#x9;</g>
&#x9;</g>
</g>
</svg>