<?xml version="1.0"?>

<svg version="1.1" xmlns="http://www.w3.org/2000/svg" xmlns:xlink="http://www.w3.org/1999/xlink" x="0px" y="0px" viewBox="0 0 16 16" style="enable-background:new 0 0 16 16;" xml:space="preserve">

<g id="Outter_Container" class="st0">
</g>
<g id="NEW" class="st0">
</g>
<g id="NEW_NO_Container">
&#x9;<g id="icon-discussion_2_">
&#x9;&#x9;<g>
&#x9;&#x9;&#x9;<g>
&#x9;&#x9;&#x9;&#x9;<path class="st2" d="M15,0.0002H1c-0.5522,0-1,0.4473-1,1v14c0,0.1302,0.0266,0.2599,0.0771,0.3821&#xA;&#x9;&#x9;&#x9;&#x9;&#x9;c0.1013,0.2447,0.2962,0.4395,0.5408,0.5408C0.7402,15.9737,0.8698,16.0002,1,16.0002s0.2598-0.0266,0.382-0.0771&#xA;&#x9;&#x9;&#x9;&#x9;&#x9;c0.1226-0.0508,0.2333-0.124,0.3257-0.2166l3.7064-3.7064H15c0.5522,0,1-0.4473,1-1v-10C16,0.4475,15.5522,0.0002,15,0.0002z&#xA;&#x9;&#x9;&#x9;&#x9;&#x9; M5,10.0002c-0.1301,0-0.2598,0.0265-0.3819,0.077c-0.1227,0.0508-0.2335,0.1241-0.3258,0.2166L2,12.5862V2.0002h12v8H5z"></path>
&#x9;&#x9;&#x9;&#x9;<path class="st2" d="M11.5,3.5002h-7c-0.5522,0-1,0.4473-1,1s0.4478,1,1,1h7c0.5522,0,1-0.4473,1-1S12.0522,3.5002,11.5,3.5002z&#xA;&#x9;&#x9;&#x9;&#x9;&#x9;"></path>
&#x9;&#x9;&#x9;&#x9;<path class="st2" d="M10,6.5002H4.5c-0.5522,0-1,0.4473-1,1s0.4478,1,1,1H10c0.5522,0,1-0.4473,1-1S10.5522,6.5002,10,6.5002z"></path>
&#x9;&#x9;&#x9;</g>
&#x9;&#x9;</g>
&#x9;</g>
</g>
</svg>