<?xml version="1.0"?>

<svg version="1.1" xmlns="http://www.w3.org/2000/svg" xmlns:xlink="http://www.w3.org/1999/xlink" x="0px" y="0px" viewBox="0 0 16 16" style="enable-background:new 0 0 16 16;" xml:space="preserve">

<g id="Outter_Container" class="st0">
</g>
<g id="NEW" class="st0">
</g>
<g id="NEW_NO_Container">
&#x9;<g id="icon-share_1_">
&#x9;&#x9;<path class="st2" d="M12.4981,10c-0.4229,0-0.8525,0.0899-1.2613,0.2797c-0.2686,0.1247-0.4991,0.2936-0.7104,0.4799&#xA;&#x9;&#x9;&#x9;L6.4555,8.4983C6.5105,8.1739,6.5018,7.8394,6.446,7.5064l4.0705-2.2612C11.0647,5.729,11.7719,6,12.5019,6&#xA;&#x9;&#x9;&#x9;c0.4228,0,0.8526-0.09,1.2613-0.2797c1.5024-0.6976,2.1548-2.4811,1.4572-3.9835C14.7125,0.6432,13.6293,0,12.4981,0&#xA;&#x9;&#x9;&#x9;c-0.4229,0-0.8525,0.0899-1.2613,0.2797C9.9855,0.8607,9.337,2.1948,9.5539,3.4926l-4.071,2.2615C4.9347,5.2708,4.2277,5,3.4981,5&#xA;&#x9;&#x9;&#x9;C3.0752,5,2.6456,5.0899,2.2368,5.2797C0.7344,5.9773,0.0821,7.7608,0.7797,9.2632C1.2876,10.3569,2.3705,11,3.5019,11&#xA;&#x9;&#x9;&#x9;c0.4228,0,0.8526-0.09,1.2613-0.2797c0.2686-0.1248,0.4992-0.2938,0.7106-0.4801l4.0707,2.2613&#xA;&#x9;&#x9;&#x9;c-0.098,0.5779-0.0303,1.1899,0.2352,1.7617C10.2876,15.3569,11.3705,16,12.5019,16c0.4228,0,0.8526-0.09,1.2613-0.2797&#xA;&#x9;&#x9;&#x9;c1.5024-0.6976,2.1548-2.4811,1.4572-3.9835C14.7125,10.6432,13.6293,10,12.4981,10z M12.0791,2.0937&#xA;&#x9;&#x9;&#x9;C12.213,2.0315,12.3539,2,12.4981,2c0.3884,0,0.7449,0.2274,0.9083,0.5792c0.2321,0.4998,0.0143,1.0952-0.4855,1.3272&#xA;&#x9;&#x9;&#x9;C12.787,3.9685,12.646,4,12.5019,4c-0.3883,0-0.7448-0.2274-0.9082-0.5792C11.3616,2.9211,11.5794,2.3257,12.0791,2.0937z&#xA;&#x9;&#x9;&#x9; M3.9208,8.9063C3.787,8.9685,3.646,9,3.5019,9C3.1136,9,2.7571,8.7727,2.5937,8.4209C2.3616,7.9211,2.5794,7.3257,3.0791,7.0937&#xA;&#x9;&#x9;&#x9;C3.213,7.0315,3.3539,7,3.4981,7C3.8865,7,4.243,7.2273,4.4064,7.5791C4.6384,8.0789,4.4206,8.6743,3.9208,8.9063z&#xA;&#x9;&#x9;&#x9; M12.9208,13.9063C12.787,13.9685,12.646,14,12.5019,14c-0.3883,0-0.7448-0.2274-0.9082-0.5792&#xA;&#x9;&#x9;&#x9;c-0.2321-0.4998-0.0143-1.0952,0.4854-1.3272C12.213,12.0315,12.3539,12,12.4981,12c0.3884,0,0.7449,0.2274,0.9083,0.5792&#xA;&#x9;&#x9;&#x9;C13.6384,13.0789,13.4206,13.6743,12.9208,13.9063z"></path>
&#x9;</g>
</g>
</svg>