<?xml version="1.0"?>

<svg version="1.1" xmlns="http://www.w3.org/2000/svg" xmlns:xlink="http://www.w3.org/1999/xlink" x="0px" y="0px" viewBox="0 0 16 16" style="enable-background:new 0 0 16 16;" xml:space="preserve">

<g id="Outter_Container" class="st0">
</g>
<g id="NEW" class="st0">
</g>
<g id="NEW_NO_Container">
&#x9;<g id="icon-arrow-up_2_">
&#x9;&#x9;<g>
&#x9;&#x9;&#x9;<path class="st2" d="M14.7074,6.293l-6-6c-0.3906-0.3906-1.0234-0.3906-1.4141,0l-6,6c-0.3906,0.3906-0.3906,1.0234,0,1.4141&#xA;&#x9;&#x9;&#x9;&#x9;C1.4886,7.9024,1.7445,8,2.0003,8s0.5117-0.0977,0.707-0.293l4.3174-4.3174V15c0,0.5522,0.4478,1,1,1s1-0.4478,1-1V3.4385&#xA;&#x9;&#x9;&#x9;&#x9;l4.2686,4.2686C13.4886,7.9024,13.7445,8,14.0003,8s0.5117-0.0977,0.707-0.293C15.098,7.3164,15.098,6.6836,14.7074,6.293z"></path>
&#x9;&#x9;</g>
&#x9;</g>
</g>
</svg>