<?xml version="1.0"?>

<svg version="1.1" xmlns="http://www.w3.org/2000/svg" xmlns:xlink="http://www.w3.org/1999/xlink" x="0px" y="0px" viewBox="0 0 16 16" style="enable-background:new 0 0 16 16;" xml:space="preserve">

<g id="Outter_Container" class="st0">
</g>
<g id="NEW" class="st0">
</g>
<g id="NEW_NO_Container">
&#x9;<g id="icon-secure_2_">
&#x9;&#x9;<g>
&#x9;&#x9;&#x9;<g>
&#x9;&#x9;&#x9;&#x9;<path class="st2" d="M8.0003,12.5c0.5527,0,1-0.4478,1-1v-1c0-0.5522-0.4473-1-1-1s-1,0.4478-1,1v1&#xA;&#x9;&#x9;&#x9;&#x9;&#x9;C7.0003,12.0522,7.4476,12.5,8.0003,12.5z"></path>
&#x9;&#x9;&#x9;&#x9;<path class="st2" d="M12.5311,6H12.013V4c0-2.2056-1.7939-4-4-4s-4,1.7944-4,4v2H3.4949C2.9548,6,2.513,6.4419,2.513,6.9819&#xA;&#x9;&#x9;&#x9;&#x9;&#x9;v3.5181C2.513,13.525,4.988,16,8.0129,16H8.013c3.0249,0,5.5-2.475,5.5-5.4999V6.9819C13.513,6.4419,13.0711,6,12.5311,6z&#xA;&#x9;&#x9;&#x9;&#x9;&#x9; M6.013,4c0-1.103,0.8975-2,2-2s2,0.897,2,2v2h-4V4z M11.513,10.5001C11.513,12.4299,9.9428,14,8.0129,14&#xA;&#x9;&#x9;&#x9;&#x9;&#x9;c-1.9298,0-3.4999-1.5701-3.4999-3.4999V8h7V10.5001z"></path>
&#x9;&#x9;&#x9;</g>
&#x9;&#x9;</g>
&#x9;</g>
</g>
</svg>