<?xml version="1.0"?>

<svg version="1.1" xmlns="http://www.w3.org/2000/svg" xmlns:xlink="http://www.w3.org/1999/xlink" x="0px" y="0px" viewBox="0 0 16 16" style="enable-background:new 0 0 16 16;" xml:space="preserve">

<g id="Outter_Container" class="st0">
</g>
<g id="NEW" class="st0">
</g>
<g id="NEW_NO_Container">
&#x9;<g id="icon-edit_2_">
&#x9;&#x9;<g>
&#x9;&#x9;&#x9;<path class="st2" d="M15.707,3.2932l-3-3c-0.3906-0.3906-1.0234-0.3906-1.4141,0l-11,11C0.1055,11.4807,0,11.7346,0,12.0002v3&#xA;&#x9;&#x9;&#x9;&#x9;c0,0.5527,0.4473,1,1,1h3c0.2656,0,0.5195-0.1055,0.707-0.293l11-11C16.0977,4.3166,16.0977,3.6838,15.707,3.2932z&#xA;&#x9;&#x9;&#x9;&#x9; M3.5859,14.0002H2v-1.5859l7.5-7.5l1.5859,1.5859L3.5859,14.0002z M12.5,5.0862l-1.5859-1.5859L12,2.4143l1.5859,1.5859&#xA;&#x9;&#x9;&#x9;&#x9;L12.5,5.0862z"></path>
&#x9;&#x9;</g>
&#x9;</g>
</g>
</svg>