<?xml version="1.0"?>

<svg version="1.1" xmlns="http://www.w3.org/2000/svg" xmlns:xlink="http://www.w3.org/1999/xlink" x="0px" y="0px" viewBox="0 0 16 16" style="enable-background:new 0 0 16 16;" xml:space="preserve">

<g id="Outter_Container" class="st0">
</g>
<g id="NEW" class="st0">
</g>
<g id="NEW_NO_Container">
&#x9;<g id="icon-trash_2_">
&#x9;&#x9;<path class="st2" d="M14.4998,2.9999h-2.5V1.9985c0-1.1021-0.8965-1.9985-1.998-1.9985H5.9983&#xA;&#x9;&#x9;&#x9;c-1.1021,0-1.9985,0.8965-1.9985,1.9985v1.0015h-2.5c-0.5522,0-1,0.4478-1,1s0.4478,1,1,1h0.5866l0.9173,10.0903&#xA;&#x9;&#x9;&#x9;c0.0469,0.5151,0.479,0.9097,0.9961,0.9097h8c0.5171,0,0.9492-0.3945,0.9961-0.9097l0.9173-10.0903h0.5866c0.5522,0,1-0.4478,1-1&#xA;&#x9;&#x9;&#x9;S15.052,2.9999,14.4998,2.9999z M5.9983,1.9999l4.0015-0.0015v1.0015H5.999L5.9983,1.9999z M11.0867,13.9999H4.9129l-0.8179-9&#xA;&#x9;&#x9;&#x9;h7.8096L11.0867,13.9999z"></path>
&#x9;</g>
</g>
</svg>