<?xml version="1.0"?>

<svg version="1.1" xmlns="http://www.w3.org/2000/svg" xmlns:xlink="http://www.w3.org/1999/xlink" x="0px" y="0px" viewBox="0 0 16 16" style="enable-background:new 0 0 16 16;" xml:space="preserve">

<g id="Outter_Container" class="st0">
</g>
<g id="NEW" class="st0">
</g>
<g id="NEW_NO_Container">
&#x9;<g id="icon-profile_1_">
&#x9;&#x9;<g>
&#x9;&#x9;&#x9;<path class="st2" d="M11.2942,8.7381c1.0383-0.9108,1.7057-2.2296,1.7057-3.7181c0-2.757-2.243-5-5-5s-5,2.243-5,5&#xA;&#x9;&#x9;&#x9;&#x9;c0,1.4901,0.6683,2.8101,1.7087,3.7203c-2.7722,1.257-4.7086,4.0425-4.7086,7.2794h2c0-3.3086,2.6914-6,6-6&#xA;&#x9;&#x9;&#x9;&#x9;c3.3081,0,5.9995,2.6914,5.9995,6h2C15.9996,12.7836,14.0646,9.9968,11.2942,8.7381z M7.9999,2.02c1.6569,0,3,1.3432,3,3&#xA;&#x9;&#x9;&#x9;&#x9;c0,1.6569-1.3431,3-3,3c-1.6568,0-3-1.3431-3-3C4.9999,3.3632,6.3431,2.02,7.9999,2.02z"></path>
&#x9;&#x9;</g>
&#x9;</g>
</g>
</svg>