<?xml version="1.0"?>

<svg version="1.1" xmlns="http://www.w3.org/2000/svg" xmlns:xlink="http://www.w3.org/1999/xlink" x="0px" y="0px" viewBox="0 0 16 16" style="enable-background:new 0 0 16 16;" xml:space="preserve">

<g id="Outter_Container" class="st0">
</g>
<g id="NEW" class="st0">
</g>
<g id="NEW_NO_Container">
&#x9;<g id="icon-tag_1_">
&#x9;&#x9;<g>
&#x9;&#x9;&#x9;<g>
&#x9;&#x9;&#x9;&#x9;<path class="st2" d="M2.0023,0.5295h0.005H2.0023 M6.2636,2.0203l7.1178,7.1178L9.118,13.4014L2.0002,6.2837l0.0015-4.262&#xA;&#x9;&#x9;&#x9;&#x9;&#x9;L6.2636,2.0203 M6.8821,0.02c-0.0001,0-0.0002,0-0.0002,0L0.5087,0.0223C0.2291,0.0224,0.0024,0.2491,0.0023,0.5287L0,6.9019&#xA;&#x9;&#x9;&#x9;&#x9;&#x9;C0,7.0363,0.0533,7.1652,0.1484,7.2603l8.6114,8.6114C8.8587,15.9706,8.9884,16.02,9.118,16.02s0.2593-0.0494,0.3582-0.1484&#xA;&#x9;&#x9;&#x9;&#x9;&#x9;l6.3754-6.3754c0.1978-0.1978,0.1978-0.5186,0-0.7164L7.2402,0.1684C7.1452,0.0734,7.0164,0.02,6.8821,0.02L6.8821,0.02z"></path>
&#x9;&#x9;&#x9;&#x9;<g>
&#x9;&#x9;&#x9;&#x9;&#x9;<circle class="st2" cx="4.5" cy="4.52" r="1"></circle>
&#x9;&#x9;&#x9;&#x9;</g>
&#x9;&#x9;&#x9;</g>
&#x9;&#x9;</g>
&#x9;</g>
</g>
</svg>