<?xml version="1.0"?>

<svg version="1.1" xmlns="http://www.w3.org/2000/svg" xmlns:xlink="http://www.w3.org/1999/xlink" x="0px" y="0px" viewBox="0 0 16 16" style="enable-background:new 0 0 16 16;" xml:space="preserve">

<g id="Outter_Container" class="st0">
</g>
<g id="NEW" class="st0">
</g>
<g id="NEW_NO_Container">
&#x9;<g id="icon-feedback_2_">
&#x9;&#x9;<g>
&#x9;&#x9;&#x9;<path class="st2" d="M16,5.0002c0-0.5527-0.4478-1-1-1h-3v-3c0-0.5527-0.4478-1-1-1H1c-0.5522,0-1,0.4473-1,1v7.1426&#xA;&#x9;&#x9;&#x9;&#x9;c0,0.5527,0.4478,1,1,1h3v3c0,0.5527,0.4478,1,1,1h6.7289l2.5634,2.5638c0.0923,0.0925,0.2031,0.1658,0.3257,0.2166&#xA;&#x9;&#x9;&#x9;&#x9;c0.1222,0.0505,0.2518,0.0771,0.382,0.0771s0.2598-0.0266,0.382-0.0771c0.2446-0.1013,0.4395-0.2961,0.5408-0.5408&#xA;&#x9;&#x9;&#x9;&#x9;C15.9734,15.2601,16,15.1304,16,15.0002V5.0002z M12.525,11.2198c-0.1221-0.0505-0.2518-0.077-0.3819-0.077H6V6.0002h8v6.5856&#xA;&#x9;&#x9;&#x9;&#x9;l-1.1492-1.1494C12.7584,11.3439,12.6477,11.2706,12.525,11.2198z M2,7.1428V2.0002h8v2H5c-0.5522,0-1,0.4473-1,1v2.1426H2z"></path>
&#x9;&#x9;</g>
&#x9;</g>
</g>
</svg>