<?xml version="1.0"?>

<svg version="1.1" xmlns="http://www.w3.org/2000/svg" xmlns:xlink="http://www.w3.org/1999/xlink" x="0px" y="0px" viewBox="0 0 16 16" style="enable-background:new 0 0 16 16;" xml:space="preserve">

<g id="Outter_Container" class="st0">
</g>
<g id="NEW" class="st0">
</g>
<g id="NEW_NO_Container">
&#x9;<g id="icon-search_1_">
&#x9;&#x9;<g>
&#x9;&#x9;&#x9;<path class="st2" d="M15.7074,14.293l-3.9633-3.9633c0.7864-1.0748,1.2563-2.3958,1.2563-3.8297c0-3.5898-2.9102-6.5-6.5-6.5&#xA;&#x9;&#x9;&#x9;&#x9;s-6.5,2.9102-6.5,6.5s2.9102,6.5,6.5,6.5c1.4338,0,2.7548-0.4698,3.8297-1.2563l3.9633,3.9633&#xA;&#x9;&#x9;&#x9;&#x9;C14.4886,15.9023,14.7445,16,15.0003,16s0.5117-0.0977,0.707-0.293C16.098,15.3164,16.098,14.6836,15.7074,14.293z M2.0003,6.5&#xA;&#x9;&#x9;&#x9;&#x9;c0-2.4813,2.0187-4.5,4.5-4.5s4.5,2.0187,4.5,4.5c0,1.202-0.4681,2.332-1.318,3.1819C8.8324,10.5319,7.7024,11,6.5003,11&#xA;&#x9;&#x9;&#x9;&#x9;C4.019,11,2.0003,8.9813,2.0003,6.5z"></path>
&#x9;&#x9;</g>
&#x9;</g>
</g>
</svg>