<?xml version="1.0"?>

<svg version="1.1" xmlns="http://www.w3.org/2000/svg" xmlns:xlink="http://www.w3.org/1999/xlink" x="0px" y="0px" viewBox="0 0 16 16" style="enable-background:new 0 0 16 16;" xml:space="preserve">

<g id="Outter_Container" class="st0">
</g>
<g id="NEW" class="st0">
</g>
<g id="NEW_NO_Container">
&#x9;<g id="icon-social-instagram_2_">
&#x9;&#x9;<g>
&#x9;&#x9;&#x9;<g>
&#x9;&#x9;&#x9;&#x9;<g>
&#x9;&#x9;&#x9;&#x9;&#x9;<path class="st2" d="M8,4.9189C6.2984,4.9189,4.9189,6.2984,4.9189,8S6.2984,11.0811,8,11.0811S11.0811,9.7016,11.0811,8&#xA;&#x9;&#x9;&#x9;&#x9;&#x9;&#x9;S9.7016,4.9189,8,4.9189z M8,10c-1.1046,0-2-0.8954-2-2c0-1.1046,0.8954-2,2-2c1.1046,0,2,0.8954,2,2C10,9.1046,9.1046,10,8,10&#xA;&#x9;&#x9;&#x9;&#x9;&#x9;&#x9;z"></path>
&#x9;&#x9;&#x9;&#x9;&#x9;<circle class="st2" cx="11.2028" cy="4.7972" r="0.72"></circle>
&#x9;&#x9;&#x9;&#x9;&#x9;<path class="st2" d="M10.6021,3.1c1.2671,0,2.298,1.0309,2.298,2.298v5.2041c0,1.2671-1.0309,2.298-2.298,2.298H5.3979&#xA;&#x9;&#x9;&#x9;&#x9;&#x9;&#x9;c-1.2671,0-2.298-1.0309-2.298-2.298V5.3979C3.1,4.1309,4.1309,3.1,5.3979,3.1H10.6021 M10.6021,2H5.3979&#xA;&#x9;&#x9;&#x9;&#x9;&#x9;&#x9;C3.5213,2,2,3.5213,2,5.3979v5.2041C2,12.4787,3.5213,14,5.3979,14h5.2041C12.4787,14,14,12.4787,14,10.602V5.3979&#xA;&#x9;&#x9;&#x9;&#x9;&#x9;&#x9;C14,3.5213,12.4787,2,10.6021,2L10.6021,2z"></path>
&#x9;&#x9;&#x9;&#x9;</g>
&#x9;&#x9;&#x9;</g>
&#x9;&#x9;</g>
&#x9;</g>
</g>
</svg>