<?xml version="1.0"?>

<svg version="1.1" xmlns="http://www.w3.org/2000/svg" xmlns:xlink="http://www.w3.org/1999/xlink" x="0px" y="0px" viewBox="0 0 16 16" style="enable-background:new 0 0 16 16;" xml:space="preserve">

<g id="Outter_Container" class="st0">
</g>
<g id="NEW" class="st0">
</g>
<g id="NEW_NO_Container">
&#x9;<g id="icon-video-slideshow_2_">
&#x9;&#x9;<g>
&#x9;&#x9;&#x9;<g>
&#x9;&#x9;&#x9;&#x9;<path class="st2" d="M15,2.0531H1c-0.5527,0-1,0.4473-1,1v9.8936c0,0.5527,0.4473,1,1,1h14c0.5527,0,1-0.4473,1-1V3.0531&#xA;&#x9;&#x9;&#x9;&#x9;&#x9;C16,2.5004,15.5527,2.0531,15,2.0531z M14,4.0531v7.8936H2V4.0531H14z"></path>
&#x9;&#x9;&#x9;&#x9;<path class="st2" d="M7.2472,9.9357l2.6935-1.4963c0.3448-0.1916,0.3448-0.6876,0-0.8793L7.2472,6.0638&#xA;&#x9;&#x9;&#x9;&#x9;&#x9;C6.9119,5.8776,6.5,6.1199,6.5,6.5034v2.9927C6.5,9.8796,6.9119,10.122,7.2472,9.9357z"></path>
&#x9;&#x9;&#x9;</g>
&#x9;&#x9;</g>
&#x9;</g>
</g>
</svg>