<?xml version="1.0"?>

<svg version="1.1" xmlns="http://www.w3.org/2000/svg" xmlns:xlink="http://www.w3.org/1999/xlink" x="0px" y="0px" viewBox="0 0 16 16" style="enable-background:new 0 0 16 16;" xml:space="preserve">

<g id="Outter_Container" class="st0">
</g>
<g id="NEW" class="st0">
</g>
<g id="NEW_NO_Container">
&#x9;<g id="icon-next_2_">
&#x9;&#x9;<g>
&#x9;&#x9;&#x9;<g>
&#x9;&#x9;&#x9;&#x9;<path class="st2" d="M2,2c0.167,0,0.335,0.042,0.4854,0.126l9.0005,5C11.8032,7.3018,12,7.6367,12,8&#xA;&#x9;&#x9;&#x9;&#x9;&#x9;c0,0.3633-0.1968,0.6982-0.5142,0.874l-9.0005,5c-0.3076,0.1729-0.6865,0.168-0.9922-0.0117S1,13.3545,1,13V3&#xA;&#x9;&#x9;&#x9;&#x9;&#x9;c0-0.3545,0.1875-0.6826,0.4932-0.8623C1.6494,2.0459,1.8242,2,2,2z M8.9409,8L3,4.6992v6.6016L8.9409,8z"></path>
&#x9;&#x9;&#x9;</g>
&#x9;&#x9;&#x9;<path class="st2" d="M14,2c0.5522,0,1,0.4473,1,1v10c0,0.5527-0.4478,1-1,1s-1-0.4473-1-1V3C13,2.4473,13.4478,2,14,2z"></path>
&#x9;&#x9;</g>
&#x9;</g>
</g>
</svg>