<?xml version="1.0"?>

<svg version="1.1" xmlns="http://www.w3.org/2000/svg" xmlns:xlink="http://www.w3.org/1999/xlink" x="0px" y="0px" viewBox="0 0 16 16" style="enable-background:new 0 0 16 16;" xml:space="preserve">

<g id="Outter_Container" class="st0">
</g>
<g id="NEW" class="st0">
</g>
<g id="NEW_NO_Container">
&#x9;<g id="icon-menu_2_">
&#x9;&#x9;<g id="Group_557_3_" transform="translate(-5665 705.914)">
&#x9;&#x9;&#x9;<g id="Group_552_3_">
&#x9;&#x9;&#x9;&#x9;<path class="st2" d="M5680.0005-702.914h-14c-0.5522,0-1-0.4478-1-1s0.4478-1,1-1h14c0.5522,0,1,0.4478,1,1&#xA;&#x9;&#x9;&#x9;&#x9;&#x9;S5680.5527-702.914,5680.0005-702.914z"></path>
&#x9;&#x9;&#x9;&#x9;<path class="st2" d="M5680.0005-696.914h-14c-0.5522,0-1-0.4478-1-1s0.4478-1,1-1h14c0.5522,0,1,0.4478,1,1&#xA;&#x9;&#x9;&#x9;&#x9;&#x9;S5680.5527-696.914,5680.0005-696.914z"></path>
&#x9;&#x9;&#x9;&#x9;<path class="st2" d="M5674.0005-690.914h-8c-0.5522,0-1-0.4478-1-1s0.4478-1,1-1h8c0.5522,0,1,0.4478,1,1&#xA;&#x9;&#x9;&#x9;&#x9;&#x9;S5674.5527-690.914,5674.0005-690.914z"></path>
&#x9;&#x9;&#x9;</g>
&#x9;&#x9;</g>
&#x9;</g>
</g>
</svg>