<?xml version="1.0"?>

<svg version="1.1" xmlns="http://www.w3.org/2000/svg" xmlns:xlink="http://www.w3.org/1999/xlink" x="0px" y="0px" viewBox="0 0 16 16" style="enable-background:new 0 0 16 16;" xml:space="preserve">

<g id="Outter_Container" class="st0">
</g>
<g id="NEW" class="st0">
</g>
<g id="NEW_NO_Container">
&#x9;<g id="icon-info_2_">
&#x9;&#x9;<g>
&#x9;&#x9;&#x9;<g>
&#x9;&#x9;&#x9;&#x9;<g>
&#x9;&#x9;&#x9;&#x9;&#x9;<path class="st2" d="M8.0003,2c3.3084,0,6,2.6916,6,6s-2.6916,6-6,6s-6-2.6916-6-6S4.6919,2,8.0003,2 M8.0003,0&#xA;&#x9;&#x9;&#x9;&#x9;&#x9;&#x9;c-4.4183,0-8,3.5817-8,8s3.5817,8,8,8s8-3.5817,8-8S12.4186,0,8.0003,0L8.0003,0z"></path>
&#x9;&#x9;&#x9;&#x9;</g>
&#x9;&#x9;&#x9;&#x9;<path class="st2" d="M8.0003,11.9998c-0.5522,0-1-0.4473-1-1v-3c0-0.5527,0.4478-1,1-1s1,0.4473,1,1v3&#xA;&#x9;&#x9;&#x9;&#x9;&#x9;C9.0003,11.5525,8.5526,11.9998,8.0003,11.9998z"></path>
&#x9;&#x9;&#x9;</g>
&#x9;&#x9;&#x9;<circle class="st2" cx="8.0003" cy="5" r="1"></circle>
&#x9;&#x9;</g>
&#x9;</g>
</g>
</svg>