<?xml version="1.0"?>

<svg version="1.1" xmlns="http://www.w3.org/2000/svg" xmlns:xlink="http://www.w3.org/1999/xlink" x="0px" y="0px" viewBox="0 0 16 16" style="enable-background:new 0 0 16 16;" xml:space="preserve">

<g id="Outter_Container" class="st0">
</g>
<g id="NEW" class="st0">
</g>
<g id="NEW_NO_Container">
&#x9;<path id="icon-stop-circle_2_" class="st2" d="M8,0C3.5818,0,0,3.5817,0,8s3.5818,8,8,8s8-3.5817,8-8S12.4182,0,8,0z&#xA;&#x9;&#x9; M11.707,10.293c0.3906,0.3906,0.3906,1.0234,0,1.4141c-0.1953,0.1953-0.4512,0.293-0.707,0.293s-0.5117-0.0977-0.707-0.293&#xA;&#x9;&#x9;L8,9.4141l-2.293,2.293c-0.1953,0.1953-0.4512,0.293-0.707,0.293s-0.5117-0.0977-0.707-0.293&#xA;&#x9;&#x9;c-0.3906-0.3906-0.3906-1.0234,0-1.4141l2.293-2.293l-2.293-2.293c-0.3906-0.3906-0.3906-1.0234,0-1.4141s1.0234-0.3906,1.4141,0&#xA;&#x9;&#x9;L8,6.586l2.293-2.293c0.3906-0.3906,1.0234-0.3906,1.4141,0s0.3906,1.0234,0,1.4141l-2.293,2.293L11.707,10.293z"></path>
</g>
</svg>