<?xml version="1.0"?>

<svg version="1.1" xmlns="http://www.w3.org/2000/svg" xmlns:xlink="http://www.w3.org/1999/xlink" x="0px" y="0px" viewBox="0 0 16 16" style="enable-background:new 0 0 16 16;" xml:space="preserve">

<g id="Outter_Container" class="st0">
</g>
<g id="NEW" class="st0">
</g>
<g id="NEW_NO_Container">
&#x9;<g id="icon-document_2_">
&#x9;&#x9;<g>
&#x9;&#x9;&#x9;<path class="st2" d="M13.9229,4.6181c-0.0508-0.1227-0.1241-0.2335-0.2167-0.3258L9.7077,0.2939&#xA;&#x9;&#x9;&#x9;&#x9;C9.6154,0.2013,9.5046,0.128,9.3819,0.0773C9.2598,0.0267,9.1301,0.0002,9,0.0002H3c-0.5522,0-1,0.4473-1,1v14&#xA;&#x9;&#x9;&#x9;&#x9;c0,0.5527,0.4478,1,1,1h10c0.5522,0,1-0.4473,1-1v-10C14,4.87,13.9734,4.7403,13.9229,4.6181z M11.5859,5.0002H9V2.4143&#xA;&#x9;&#x9;&#x9;&#x9;L11.5859,5.0002z M7,6.0002c0,0.5527,0.4478,1,1,1h4v7H4v-12h3V6.0002z"></path>
&#x9;&#x9;</g>
&#x9;</g>
</g>
</svg>