<?xml version="1.0"?>

<svg version="1.1" xmlns="http://www.w3.org/2000/svg" xmlns:xlink="http://www.w3.org/1999/xlink" x="0px" y="0px" viewBox="0 0 16 16" style="enable-background:new 0 0 16 16;" xml:space="preserve">

<g id="Outter_Container" class="st0">
</g>
<g id="NEW" class="st0">
</g>
<g id="NEW_NO_Container">
&#x9;<g id="icon-light-bulb_2_">
&#x9;&#x9;<g>
&#x9;&#x9;&#x9;<path class="st2" d="M7.9999,1.9998c1.9299,0,3.4999,1.5701,3.4999,3.4999c0,0.824-0.2769,1.5944-0.8009,2.228&#xA;&#x9;&#x9;&#x9;&#x9;c-0.1663,0.2011-0.2916,0.4327-0.3689,0.6819l-0.8037,2.5901H6.4727L5.6671,8.4064C5.5899,8.1579,5.4649,7.9268,5.2992,7.7262&#xA;&#x9;&#x9;&#x9;&#x9;c-0.6791-0.8223-0.938-1.8687-0.7291-2.9466c0.2552-1.3163,1.3467-2.426,2.6544-2.6984&#xA;&#x9;&#x9;&#x9;&#x9;C7.4837,2.0271,7.7446,1.9998,7.9999,1.9998 M7.9999-0.0002c-0.3864,0-0.7821,0.0399-1.1833,0.1234&#xA;&#x9;&#x9;&#x9;&#x9;C4.7086,0.5624,3.0165,2.2851,2.6067,4.399C2.2673,6.1497,2.7592,7.7914,3.7571,8.9997H3.757l1.0243,3.2968&#xA;&#x9;&#x9;&#x9;&#x9;c0.13,0.4182,0.517,0.7032,0.955,0.7032h4.5268c0.4381,0,0.8252-0.2852,0.9551-0.7036l1.022-3.2938&#xA;&#x9;&#x9;&#x9;&#x9;c0.7867-0.9514,1.2596-2.1716,1.2596-3.5026C13.4998,2.4622,11.0375-0.0002,7.9999-0.0002L7.9999-0.0002z"></path>
&#x9;&#x9;&#x9;<path class="st2" d="M9.4998,16.0001h-3c-0.5522,0-1-0.4473-1-1s0.4478-1,1-1h3c0.5522,0,1,0.4473,1,1&#xA;&#x9;&#x9;&#x9;&#x9;S10.0521,16.0001,9.4998,16.0001z"></path>
&#x9;&#x9;</g>
&#x9;</g>
</g>
</svg>