<?xml version="1.0"?>

<svg version="1.1" xmlns="http://www.w3.org/2000/svg" xmlns:xlink="http://www.w3.org/1999/xlink" x="0px" y="0px" viewBox="0 0 16 16" style="enable-background:new 0 0 16 16;" xml:space="preserve">

<g id="Outter_Container" class="st0">
</g>
<g id="NEW" class="st0">
</g>
<g id="NEW_NO_Container">
&#x9;<g id="icon-gallery_2_">
&#x9;&#x9;<g>
&#x9;&#x9;&#x9;<path class="st2" d="M14.4998,1.9996h-13c-0.8271,0-1.5,0.6729-1.5,1.5v9c0,0.8271,0.6729,1.5,1.5,1.5h13&#xA;&#x9;&#x9;&#x9;&#x9;c0.8271,0,1.5-0.6729,1.5-1.5v-9C15.9998,2.6724,15.327,1.9996,14.4998,1.9996z M9.9998,7.7203l3.0566,4.2793H6.9432&#xA;&#x9;&#x9;&#x9;&#x9;L9.9998,7.7203z M4.4856,11.9996H2.868l2.1318-3.1973l0.8544,1.2811L4.4856,11.9996z M13.9998,3.9996v5.8801l-3.1865-4.4611&#xA;&#x9;&#x9;&#x9;&#x9;c-0.375-0.5254-1.252-0.5254-1.627,0L7.0975,8.343L5.8318,6.4449c-0.3711-0.5566-1.293-0.5566-1.6641,0l-2.168,3.2516v-5.697&#xA;&#x9;&#x9;&#x9;&#x9;H13.9998z"></path>
&#x9;&#x9;</g>
&#x9;</g>
</g>
</svg>