<?xml version="1.0"?>

<svg version="1.1" xmlns="http://www.w3.org/2000/svg" xmlns:xlink="http://www.w3.org/1999/xlink" x="0px" y="0px" viewBox="0 0 16 16" style="enable-background:new 0 0 16 16;" xml:space="preserve">

<g id="Outter_Container" class="st0">
</g>
<g id="NEW" class="st0">
</g>
<g id="NEW_NO_Container">
&#x9;<path id="icon-pluse-circle_2_" class="st2" d="M8,0C3.5817,0,0,3.5817,0,8s3.5817,8,8,8s8-3.5817,8-8S12.4183,0,8,0z M11.5,9.0001&#xA;&#x9;&#x9;H9v2.5c0,0.5522-0.4473,1-1,1s-1-0.4478-1-1v-2.5H4.5c-0.5527,0-1-0.4478-1-1s0.4473-1,1-1H7v-2.5c0-0.5522,0.4473-1,1-1&#xA;&#x9;&#x9;s1,0.4478,1,1v2.5h2.5c0.5527,0,1,0.4478,1,1S12.0527,9.0001,11.5,9.0001z"></path>
</g>
</svg>