<?xml version="1.0"?>

<svg version="1.1" xmlns="http://www.w3.org/2000/svg" xmlns:xlink="http://www.w3.org/1999/xlink" x="0px" y="0px" viewBox="0 0 16 16" style="enable-background:new 0 0 16 16;" xml:space="preserve">

<g id="Outter_Container" class="st0">
</g>
<g id="NEW" class="st0">
</g>
<g id="NEW_NO_Container">
&#x9;<g id="icon-email_2_">
&#x9;&#x9;<path class="st2" d="M15.0003,2h-14c-0.5522,0-1,0.4478-1,1v10c0,0.5523,0.4478,1,1,1h14c0.5523,0,1-0.4477,1-1V3&#xA;&#x9;&#x9;&#x9;C16.0003,2.4477,15.5526,2,15.0003,2z M8.0003,7.6984L3.6688,4.0889h8.6625L8.0003,7.6984z M2.0893,11.911V5.3756L7.3602,9.768&#xA;&#x9;&#x9;&#x9;c0.0469,0.0391,0.1019,0.0583,0.1532,0.0875c0.0369,0.021,0.0695,0.046,0.1084,0.062C7.7439,9.9678,7.8709,10,7.9998,10&#xA;&#x9;&#x9;&#x9;C8,10,8.0001,9.9998,8.0003,9.9998S8.0006,10,8.0008,10c0.129,0,0.2559-0.0321,0.3781-0.0825&#xA;&#x9;&#x9;&#x9;c0.0389-0.016,0.0715-0.041,0.1084-0.062C8.5385,9.8264,8.5935,9.8071,8.6405,9.768l5.2709-4.3921v6.5351H2.0893z"></path>
&#x9;</g>
</g>
</svg>