<?xml version="1.0"?>

<svg version="1.1" xmlns="http://www.w3.org/2000/svg" xmlns:xlink="http://www.w3.org/1999/xlink" x="0px" y="0px" viewBox="0 0 16 16" style="enable-background:new 0 0 16 16;" xml:space="preserve">

<g id="Outter_Container" class="st0">
</g>
<g id="NEW" class="st0">
</g>
<g id="NEW_NO_Container">
&#x9;<g id="icon-phone_2_">
&#x9;&#x9;<g>
&#x9;&#x9;&#x9;<path class="st2" d="M15.0003,10.4389c0-0.5137-0.3893-0.9439-0.9005-0.9951l-3.3041-0.3304&#xA;&#x9;&#x9;&#x9;&#x9;C10.3306,9.067,9.8953,9.3488,9.7476,9.7923L9.25,11.285C7.3896,10.172,5.8283,8.6106,4.7153,6.7504L6.208,6.2528&#xA;&#x9;&#x9;&#x9;&#x9;c0.4435-0.1478,0.7253-0.5831,0.6788-1.0482L6.5564,1.9005C6.5053,1.3893,6.0752,1,5.5614,1H2.0003&#xA;&#x9;&#x9;&#x9;&#x9;c0,0-0.0877,0.0024-0.1367,0.0095c-0.5469,0.0757-0.9292,0.5801-0.854,1.1274c0.9175,6.6504,6.2031,11.936,12.854,12.854&#xA;&#x9;&#x9;&#x9;&#x9;c0.0464,0.0063,0.0923,0.0093,0.1382,0.0093c0.4912,0,0.9199-0.3628,0.9893-0.8633C14.9978,14.0876,15.0003,14,15.0003,14&#xA;&#x9;&#x9;&#x9;&#x9;V10.4389z"></path>
&#x9;&#x9;</g>
&#x9;</g>
</g>
</svg>