<?xml version="1.0"?>

<svg version="1.1" xmlns="http://www.w3.org/2000/svg" xmlns:xlink="http://www.w3.org/1999/xlink" x="0px" y="0px" viewBox="0 0 16 16" style="enable-background:new 0 0 16 16;" xml:space="preserve">

<g id="Outter_Container" class="st0">
</g>
<g id="NEW" class="st0">
</g>
<g id="NEW_NO_Container">
&#x9;<g id="icon-play_3_">
&#x9;&#x9;<g>
&#x9;&#x9;&#x9;<path class="st2" d="M13.4858,7.1255l-9-5c-0.3105-0.1719-0.687-0.167-0.9932,0.0117C3.1875,2.3169,3,2.645,3,2.9995v10&#xA;&#x9;&#x9;&#x9;&#x9;c0,0.3545,0.1875,0.6826,0.4927,0.8623C3.6494,13.9536,3.8247,13.9995,4,13.9995c0.167,0,0.3345-0.042,0.4858-0.126l9-5&#xA;&#x9;&#x9;&#x9;&#x9;C13.8032,8.6978,14,8.3628,14,7.9995S13.8032,7.3013,13.4858,7.1255z M5,11.3003V4.6988l5.9409,3.3008L5,11.3003z"></path>
&#x9;&#x9;</g>
&#x9;</g>
</g>
</svg>