<?xml version="1.0"?>

<svg version="1.1" xmlns="http://www.w3.org/2000/svg" xmlns:xlink="http://www.w3.org/1999/xlink" x="0px" y="0px" viewBox="0 0 16 16" style="enable-background:new 0 0 16 16;" xml:space="preserve">

<g id="Outter_Container" class="st0">
</g>
<g id="NEW" class="st0">
</g>
<g id="NEW_NO_Container">
&#x9;<g id="icon-social-linkedin_2_">
&#x9;&#x9;<path class="st7" d="M13.0016,2H2.9984C2.447,2,2,2.447,2,2.9984v10.0033C2,13.553,2.447,14,2.9984,14h10.0033&#xA;&#x9;&#x9;&#x9;C13.553,14,14,13.553,14,13.0016V2.9984C14,2.447,13.553,2,13.0016,2z M5.6476,12.1184h-1.848V6.5609h1.848V12.1184z&#xA;&#x9;&#x9;&#x9; M4.7236,5.8058c-0.5678,0-1.0281-0.4604-1.0281-1.0282c0-0.5679,0.4603-1.0282,1.0281-1.0282&#xA;&#x9;&#x9;&#x9;c0.5679,0,1.0282,0.4603,1.0282,1.0282C5.7518,5.3455,5.2914,5.8058,4.7236,5.8058z M12.3088,12.1184h-1.8479V9.1451&#xA;&#x9;&#x9;&#x9;c0-0.7469-0.2673-1.257-0.9363-1.257c-0.5101,0-0.8131,0.344-0.9474,0.676C8.5291,8.6826,8.5169,8.8487,8.5169,9.0148v3.1036&#xA;&#x9;&#x9;&#x9;H6.6688c0,0,0.0247-5.0363,0-5.5576h1.8481v0.7875c0.2449-0.3787,0.683-0.9181,1.6644-0.9181&#xA;&#x9;&#x9;&#x9;c1.2159,0,2.1276,0.7942,2.1276,2.5015V12.1184z"></path>
&#x9;</g>
</g>
</svg>