<?xml version="1.0"?>

<svg version="1.1" xmlns="http://www.w3.org/2000/svg" xmlns:xlink="http://www.w3.org/1999/xlink" x="0px" y="0px" viewBox="0 0 16 16" style="enable-background:new 0 0 16 16;" xml:space="preserve">

<g id="Outter_Container" class="st0">
</g>
<g id="NEW" class="st0">
</g>
<g id="NEW_NO_Container">
&#x9;<g id="icon-save_2_">
&#x9;&#x9;<path class="st2" d="M15.9227,3.6177c-0.0508-0.1227-0.1241-0.2335-0.2167-0.3258l-2.9985-2.9985&#xA;&#x9;&#x9;&#x9;c-0.0923-0.0925-0.2031-0.1658-0.3258-0.2166c-0.1221-0.0505-0.2518-0.077-0.3819-0.077h-1h-6h-4c-0.5522,0-1,0.4473-1,1v14&#xA;&#x9;&#x9;&#x9;c0,0.5527,0.4478,1,1,1h3h8h3c0.5522,0,1-0.4473,1-1v-11C15.9998,3.8696,15.9733,3.7399,15.9227,3.6177z M11.9998,8.9998h-8&#xA;&#x9;&#x9;&#x9;c-0.5522,0-1,0.4473-1,1v4h-1v-12h2v3c0,0.5527,0.4478,1,1,1h6c0.5522,0,1-0.4473,1-1V2.4138l2,2v9.5859h-1v-4&#xA;&#x9;&#x9;&#x9;C12.9998,9.447,12.5521,8.9998,11.9998,8.9998z M9.9998,3.9998h-2v-2h2V3.9998z M4.9998,13.9998v-3h6v3H4.9998z"></path>
&#x9;</g>
</g>
</svg>