<?xml version="1.0"?>

<svg version="1.1" xmlns="http://www.w3.org/2000/svg" xmlns:xlink="http://www.w3.org/1999/xlink" x="0px" y="0px" viewBox="0 0 16 16" style="enable-background:new 0 0 16 16;" xml:space="preserve">

<g id="Outter_Container" class="st0">
</g>
<g id="NEW" class="st0">
</g>
<g id="NEW_NO_Container">
&#x9;<g id="icon-social-facebook_2_">
&#x9;&#x9;<path class="st2" d="M8,2C4.6863,2,2,4.6863,2,8c0,2.9948,2.1941,5.477,5.0625,5.9271V9.7344H5.5391V8h1.5234V6.6781&#xA;&#x9;&#x9;&#x9;c0-1.5037,0.8958-2.3344,2.2663-2.3344c0.6564,0,1.3431,0.1172,1.3431,0.1172v1.4766H9.9153c-0.7454,0-0.9778,0.4625-0.9778,0.937&#xA;&#x9;&#x9;&#x9;V8h1.6641l-0.266,1.7344H8.9375v4.1927C11.8059,13.477,14,10.9948,14,8C14,4.6863,11.3137,2,8,2z"></path>
&#x9;</g>
</g>
</svg>