<?xml version="1.0"?>

<svg version="1.1" xmlns="http://www.w3.org/2000/svg" xmlns:xlink="http://www.w3.org/1999/xlink" x="0px" y="0px" viewBox="0 0 16 16" style="enable-background:new 0 0 16 16;" xml:space="preserve">

<g id="Outter_Container" class="st0">
</g>
<g id="NEW" class="st0">
</g>
<g id="NEW_NO_Container">
&#x9;<g id="icon-upload_1_">
&#x9;&#x9;<g>
&#x9;&#x9;&#x9;<g>
&#x9;&#x9;&#x9;&#x9;<path class="st2" d="M4,6.02c0.2559,0,0.5117-0.0977,0.707-0.293l2.314-2.314L7,12.018c-0.001,0.5518,0.4453,1.001,0.998,1.002&#xA;&#x9;&#x9;&#x9;&#x9;&#x9;c0,0,0.001,0,0.002,0c0.5508,0,0.999-0.4463,1-0.998l0.0209-8.567l2.272,2.272C11.4882,5.9223,11.7441,6.02,12,6.02&#xA;&#x9;&#x9;&#x9;&#x9;&#x9;s0.5117-0.0977,0.707-0.293c0.3906-0.3906,0.3906-1.0234,0-1.4141l-4-4c-0.3906-0.3906-1.0234-0.3906-1.4141,0l-4,4&#xA;&#x9;&#x9;&#x9;&#x9;&#x9;c-0.3906,0.3906-0.3906,1.0234,0,1.4141C3.4882,5.9223,3.7441,6.02,4,6.02z"></path>
&#x9;&#x9;&#x9;&#x9;<path class="st2" d="M15,14.02H1c-0.5527,0-1,0.4473-1,1s0.4473,1,1,1h14c0.5527,0,1-0.4473,1-1S15.5527,14.02,15,14.02z"></path>
&#x9;&#x9;&#x9;</g>
&#x9;&#x9;</g>
&#x9;</g>
</g>
</svg>