<?xml version="1.0"?>

<svg version="1.1" xmlns="http://www.w3.org/2000/svg" xmlns:xlink="http://www.w3.org/1999/xlink" x="0px" y="0px" viewBox="0 0 16 16" style="enable-background:new 0 0 16 16;" xml:space="preserve">

<g id="Outter_Container" class="st0">
</g>
<g id="NEW" class="st0">
</g>
<g id="NEW_NO_Container">
&#x9;<g id="icon-pause_2_">
&#x9;&#x9;<g>
&#x9;&#x9;&#x9;<g>
&#x9;&#x9;&#x9;&#x9;<path class="st2" d="M5.5,13.9995c-0.5522,0-1-0.4473-1-1v-10c0-0.5527,0.4478-1,1-1s1,0.4473,1,1v10&#xA;&#x9;&#x9;&#x9;&#x9;&#x9;C6.5,13.5523,6.0522,13.9995,5.5,13.9995z"></path>
&#x9;&#x9;&#x9;&#x9;<path class="st2" d="M10.5,13.9995c-0.5522,0-1-0.4473-1-1v-10c0-0.5527,0.4478-1,1-1s1,0.4473,1,1v10&#xA;&#x9;&#x9;&#x9;&#x9;&#x9;C11.5,13.5523,11.0522,13.9995,10.5,13.9995z"></path>
&#x9;&#x9;&#x9;</g>
&#x9;&#x9;</g>
&#x9;</g>
</g>
</svg>