<?xml version="1.0"?>

<svg version="1.1" xmlns="http://www.w3.org/2000/svg" xmlns:xlink="http://www.w3.org/1999/xlink" x="0px" y="0px" viewBox="0 0 16 16" style="enable-background:new 0 0 16 16;" xml:space="preserve">

<g id="Outter_Container" class="st0">
</g>
<g id="NEW" class="st0">
</g>
<g id="NEW_NO_Container">
&#x9;<g id="icon-social-youtube_2_">
&#x9;&#x9;<path class="st2" d="M15.6657,4.1239c-0.184-0.6929-0.7262-1.2386-1.4146-1.4238C13.0034,2.3636,8,2.3636,8,2.3636&#xA;&#x9;&#x9;&#x9;s-5.0033,0-6.2511,0.3365C1.0605,2.8853,0.5184,3.431,0.3344,4.1239C0,5.3798,0,8,0,8s0,2.6202,0.3344,3.8761&#xA;&#x9;&#x9;&#x9;c0.184,0.6929,0.7262,1.2385,1.4146,1.4238C2.9967,13.6364,8,13.6364,8,13.6364s5.0034,0,6.2511-0.3365&#xA;&#x9;&#x9;&#x9;c0.6884-0.1852,1.2306-0.7309,1.4146-1.4238C16,10.6202,16,8,16,8S16,5.3798,15.6657,4.1239z M6.3636,10.379V5.621l4.1818,2.3791&#xA;&#x9;&#x9;&#x9;L6.3636,10.379z"></path>
&#x9;</g>
</g>
</svg>