<?xml version="1.0"?>

<svg version="1.1" xmlns="http://www.w3.org/2000/svg" xmlns:xlink="http://www.w3.org/1999/xlink" x="0px" y="0px" viewBox="0 0 16 16" style="enable-background:new 0 0 16 16;" xml:space="preserve">

<g id="Outter_Container" class="st0">
</g>
<g id="NEW" class="st0">
</g>
<g id="NEW_NO_Container">
&#x9;<g id="icon-send_2_">
&#x9;&#x9;<g>
&#x9;&#x9;&#x9;<path class="st2" d="M9.9999,15.9999c-0.377,0-0.7246-0.2124-0.8945-0.5527L6.2547,9.745L0.5526,6.8944&#xA;&#x9;&#x9;&#x9;&#x9;C0.1942,6.7152-0.0226,6.3392,0.0018,5.9398C0.0262,5.5399,0.286,5.1928,0.6639,5.058l14-5&#xA;&#x9;&#x9;&#x9;&#x9;c0.3613-0.1289,0.7695-0.0391,1.043,0.2349c0.2734,0.2729,0.3643,0.6792,0.2344,1.0435l-5,14&#xA;&#x9;&#x9;&#x9;&#x9;c-0.1348,0.377-0.4814,0.6377-0.8809,0.6616C10.0399,15.9994,10.0194,15.9999,9.9999,15.9999z M8.2166,9.1972l1.6299,3.2598&#xA;&#x9;&#x9;&#x9;&#x9;l3.502-9.8052l-9.8057,3.502l3.2598,1.6294l1.4902-1.4902c0.3906-0.3906,1.0234-0.3906,1.4141,0s0.3906,1.0234,0,1.4141&#xA;&#x9;&#x9;&#x9;&#x9;L8.2166,9.1972z"></path>
&#x9;&#x9;</g>
&#x9;</g>
</g>
</svg>