<?xml version="1.0"?>

<svg version="1.1" xmlns="http://www.w3.org/2000/svg" xmlns:xlink="http://www.w3.org/1999/xlink" x="0px" y="0px" viewBox="0 0 16 16" style="enable-background:new 0 0 16 16;" xml:space="preserve">

<g id="Outter_Container" class="st0">
</g>
<g id="NEW" class="st0">
</g>
<g id="NEW_NO_Container">
&#x9;<g id="icon-play-circle_2_">
&#x9;&#x9;<g>
&#x9;&#x9;&#x9;<g>
&#x9;&#x9;&#x9;&#x9;<path class="st2" d="M11.4019,8.7539l-4.6203,2.5668C6.2067,11.6402,5.5,11.2244,5.5,10.5666V5.433&#xA;&#x9;&#x9;&#x9;&#x9;&#x9;c0-0.6578,0.7067-1.0736,1.2817-0.7541l4.6203,2.5668C11.9936,7.5743,11.9936,8.4252,11.4019,8.7539z"></path>
&#x9;&#x9;&#x9;</g>
&#x9;&#x9;&#x9;<path class="st2" d="M8,1.9998c3.3084,0,6,2.6916,6,6s-2.6916,6-6,6s-6-2.6916-6-6S4.6916,1.9998,8,1.9998 M8-0.0002&#xA;&#x9;&#x9;&#x9;&#x9;c-4.4183,0-8,3.5817-8,8s3.5817,8,8,8s8-3.5817,8-8S12.4183-0.0002,8-0.0002L8-0.0002z"></path>
&#x9;&#x9;</g>
&#x9;</g>
</g>
</svg>