<?xml version="1.0"?>

<svg version="1.1" xmlns="http://www.w3.org/2000/svg" xmlns:xlink="http://www.w3.org/1999/xlink" x="0px" y="0px" viewBox="0 0 16 16" style="enable-background:new 0 0 16 16;" xml:space="preserve">

<g id="Outter_Container" class="st0">
</g>
<g id="NEW" class="st0">
</g>
<g id="NEW_NO_Container">
&#x9;<g id="icon-monitor_1_">
&#x9;&#x9;<g>
&#x9;&#x9;&#x9;<path class="st2" d="M15,0.0726H1c-0.5522,0-1,0.4473-1,1v9.8945c0,0.5527,0.4478,1,1,1h14c0.5522,0,1-0.4473,1-1V1.0726&#xA;&#x9;&#x9;&#x9;&#x9;C16,0.5199,15.5522,0.0726,15,0.0726z M14,2.0726v7.8945H2V2.0726H14z"></path>
&#x9;&#x9;&#x9;<path class="st2" d="M13,14.0199H3c-0.5522,0-1,0.4473-1,1s0.4478,1,1,1h10c0.5522,0,1-0.4473,1-1S13.5522,14.0199,13,14.0199z"></path>
&#x9;&#x9;</g>
&#x9;</g>
</g>
</svg>