<?xml version="1.0"?>

<svg version="1.1" xmlns="http://www.w3.org/2000/svg" xmlns:xlink="http://www.w3.org/1999/xlink" x="0px" y="0px" viewBox="0 0 16 16" style="enable-background:new 0 0 16 16;" xml:space="preserve">

<g id="Outter_Container" class="st0">
</g>
<g id="NEW" class="st0">
</g>
<g id="NEW_NO_Container">
&#x9;<g id="icon-cart_2_">
&#x9;&#x9;<g>
&#x9;&#x9;&#x9;<g>
&#x9;&#x9;&#x9;&#x9;<g>
&#x9;&#x9;&#x9;&#x9;&#x9;<circle class="st2" cx="5.5001" cy="14" r="1"></circle>
&#x9;&#x9;&#x9;&#x9;</g>
&#x9;&#x9;&#x9;&#x9;<g>
&#x9;&#x9;&#x9;&#x9;&#x9;<circle class="st2" cx="12.5001" cy="14" r="1"></circle>
&#x9;&#x9;&#x9;&#x9;</g>
&#x9;&#x9;&#x9;&#x9;<path class="st2" d="M15.7989,3.3979C15.6095,3.1474,15.3136,3,15.0001,3H4.2472L3.9767,1.7832C3.8741,1.3256,3.4689,1,3.0001,1&#xA;&#x9;&#x9;&#x9;&#x9;&#x9;h-2c-0.5527,0-1,0.4478-1,1s0.4473,1,1,1h1.1982L2.463,4.1933C2.4659,4.2099,2.4698,4.226,2.4737,4.2421l1.5498,6.9746&#xA;&#x9;&#x9;&#x9;&#x9;&#x9;C4.1261,11.6743,4.5314,12,5.0001,12h8c0.4463,0,0.8389-0.2959,0.9619-0.7251l2-7C16.048,3.9731,15.9874,3.6484,15.7989,3.3979z&#xA;&#x9;&#x9;&#x9;&#x9;&#x9; M12.2462,10H5.8019L4.6915,5h8.9824L12.2462,10z"></path>
&#x9;&#x9;&#x9;</g>
&#x9;&#x9;</g>
&#x9;</g>
</g>
</svg>