<?xml version="1.0"?>

<svg version="1.1" xmlns="http://www.w3.org/2000/svg" xmlns:xlink="http://www.w3.org/1999/xlink" x="0px" y="0px" viewBox="0 0 16 16" style="enable-background:new 0 0 16 16;" xml:space="preserve">

<g id="Outter_Container" class="st0">
</g>
<g id="NEW" class="st0">
</g>
<g id="NEW_NO_Container">
&#x9;<g id="icon-print_2_">
&#x9;&#x9;<path class="st2" d="M14.9999,9.9998h-1v-5c0-0.1302-0.0266-0.2599-0.0771-0.3821c-0.0508-0.1227-0.1241-0.2335-0.2167-0.3258&#xA;&#x9;&#x9;&#x9;L9.7076,0.2934C9.6153,0.2009,9.5046,0.1276,9.3818,0.0768c-0.1221-0.0505-0.2518-0.077-0.3819-0.077h-6c-0.5522,0-1,0.4473-1,1v9&#xA;&#x9;&#x9;&#x9;h-1c-0.5522,0-1,0.4473-1,1v4c0,0.5527,0.4478,1,1,1h14c0.5522,0,1-0.4473,1-1v-4C15.9999,10.447,15.5522,9.9998,14.9999,9.9998z&#xA;&#x9;&#x9;&#x9; M13.9999,11.9998v2h-12v-2H13.9999z M8.9999,2.4138l2.5859,2.5859H8.9999V2.4138z M3.9999,1.9998h3v4c0,0.5527,0.4478,1,1,1h4v3&#xA;&#x9;&#x9;&#x9;h-8V1.9998z"></path>
&#x9;</g>
</g>
</svg>