<?xml version="1.0"?>

<svg version="1.1" xmlns="http://www.w3.org/2000/svg" xmlns:xlink="http://www.w3.org/1999/xlink" x="0px" y="0px" viewBox="0 0 16 16" style="enable-background:new 0 0 16 16;" xml:space="preserve">

<g id="Outter_Container" class="st0">
</g>
<g id="NEW" class="st0">
</g>
<g id="NEW_NO_Container">
&#x9;<g id="icon-arrow-right_2_">
&#x9;&#x9;<g>
&#x9;&#x9;&#x9;<path class="st2" d="M9.7073,14.707l6-6c0.3906-0.3906,0.3906-1.0234,0-1.4141l-6-6c-0.3906-0.3906-1.0234-0.3906-1.4141,0&#xA;&#x9;&#x9;&#x9;&#x9;C8.0979,1.4883,8.0003,1.7441,8.0003,2s0.0977,0.5117,0.293,0.707l4.3174,4.3174H1.0003c-0.5522,0-1,0.4478-1,1s0.4478,1,1,1&#xA;&#x9;&#x9;&#x9;&#x9;h11.5615L8.2933,13.293c-0.1953,0.1953-0.293,0.4512-0.293,0.707s0.0977,0.5117,0.293,0.707&#xA;&#x9;&#x9;&#x9;&#x9;C8.6839,15.0977,9.3167,15.0977,9.7073,14.707z"></path>
&#x9;&#x9;</g>
&#x9;</g>
</g>
</svg>