<?xml version="1.0"?>

<svg version="1.1" xmlns="http://www.w3.org/2000/svg" xmlns:xlink="http://www.w3.org/1999/xlink" x="0px" y="0px" viewBox="0 0 16 16" style="enable-background:new 0 0 16 16;" xml:space="preserve">

<g id="Outter_Container" class="st0">
</g>
<g id="NEW" class="st0">
</g>
<g id="NEW_NO_Container">
&#x9;<g id="icon-graph_1_">
&#x9;&#x9;<path class="st2" d="M15,14.0197V0.52c0-0.2761-0.2239-0.5-0.5-0.5h-5C9.2238,0.02,9,0.2438,9,0.52v4.5H5.5&#xA;&#x9;&#x9;&#x9;C5.2238,5.02,5,5.2438,5,5.52v4.5H1.5c-0.2761,0-0.5,0.2239-0.5,0.5v3.4997c-0.5527,0-1,0.4473-1,1s0.4473,1,1,1V16.02h4h2h2h2h4&#xA;&#x9;&#x9;&#x9;v-0.0003c0.5527,0,1-0.4473,1-1S15.5527,14.0197,15,14.0197z M11,2.02h2v11.9997h-2V5.52V2.02z M7,7.02h2v6.9997H7V10.52V7.02z&#xA;&#x9;&#x9;&#x9; M3,12.02h2v1.9997H3V12.02z"></path>
&#x9;</g>
</g>
</svg>