<?xml version="1.0"?>

<svg version="1.1" xmlns="http://www.w3.org/2000/svg" xmlns:xlink="http://www.w3.org/1999/xlink" x="0px" y="0px" viewBox="0 0 16 16" style="enable-background:new 0 0 16 16;" xml:space="preserve">

<g id="Outter_Container" class="st0">
</g>
<g id="NEW" class="st0">
</g>
<g id="NEW_NO_Container">
&#x9;<g id="icon-mobile_1_">
&#x9;&#x9;<g>
&#x9;&#x9;&#x9;<g>
&#x9;&#x9;&#x9;&#x9;<path class="st2" d="M11.5,0.02h-7C3.6728,0.02,3,0.6928,3,1.52v13c0,0.8271,0.6729,1.5,1.5,1.5h7c0.8271,0,1.5-0.6729,1.5-1.5&#xA;&#x9;&#x9;&#x9;&#x9;&#x9;v-13C13,0.6928,12.3271,0.02,11.5,0.02z M8,15.0203c-0.5523,0-1-0.4478-1-1c0-0.5523,0.4477-1,1-1s1,0.4477,1,1&#xA;&#x9;&#x9;&#x9;&#x9;&#x9;C9,14.5725,8.5523,15.0203,8,15.0203z M11,12.02H5v-10h6V12.02z"></path>
&#x9;&#x9;&#x9;</g>
&#x9;&#x9;</g>
&#x9;</g>
</g>
</svg>