<?xml version="1.0"?>

<svg version="1.1" xmlns="http://www.w3.org/2000/svg" xmlns:xlink="http://www.w3.org/1999/xlink" x="0px" y="0px" viewBox="0 0 16 16" style="enable-background:new 0 0 16 16;" xml:space="preserve">

<g id="Outter_Container" class="st0">
</g>
<g id="NEW" class="st0">
</g>
<g id="NEW_NO_Container">
&#x9;<g id="icon-arrow-left_2_">
&#x9;&#x9;<g>
&#x9;&#x9;&#x9;<path class="st2" d="M6.2933,1.293l-6,6c-0.3906,0.3906-0.3906,1.0234,0,1.4141l6,6c0.3906,0.3906,1.0234,0.3906,1.4141,0&#xA;&#x9;&#x9;&#x9;&#x9;c0.1953-0.1953,0.293-0.4512,0.293-0.707s-0.0977-0.5117-0.293-0.707L3.39,8.9756h11.6104c0.5522,0,1-0.4478,1-1s-0.4478-1-1-1&#xA;&#x9;&#x9;&#x9;&#x9;H3.4388L7.7074,2.707C7.9027,2.5117,8.0003,2.2559,8.0003,2s-0.0977-0.5117-0.293-0.707&#xA;&#x9;&#x9;&#x9;&#x9;C7.3167,0.9023,6.6839,0.9023,6.2933,1.293z"></path>
&#x9;&#x9;</g>
&#x9;</g>
</g>
</svg>